#usda 1.0
(
    defaultPrim = "root"
    doc = "Blender v5.2.1 LTS"
    endTimeCode = 14
    metersPerUnit = 1
    startTimeCode = 0
    timeCodesPerSecond = 24
    upAxis = "Z"
)

def Xform "root" (
    prepend apiSchemas = ["ColorSpaceAPI"]
    customData = {
        dictionary Blender = {
            bool generated = 1
        }
    }
)
{
    uniform token colorSpace:name = "lin_rec709_scene"

    def Xform "Sketchfab_model"
    {
        custom string userProperties:blender:object_name = "Sketchfab_model"
        float3 xformOp:rotateXYZ = (-90.000015, -0, 0)
        float3 xformOp:scale = (0.03752911, 0.037529115, 0.037529115)
        double3 xformOp:translate = (-0.08928367495536804, -0.12698325514793396, -2.1904101371765137)
        uniform token[] xformOpOrder = ["xformOp:translate", "xformOp:rotateXYZ", "xformOp:scale"]

        def Xform "_7bdce573fa4f4345b532d79e2adc2223_fbx"
        {
            custom string userProperties:blender:object_name = "7bdce573fa4f4345b532d79e2adc2223.fbx"
            float3 xformOp:rotateXYZ = (90.000015, -0, 0)
            float3 xformOp:scale = (1, 1.0000001, 1.0000001)
            double3 xformOp:translate = (0, 4.5461564468496363e-7, 2.384185791015625e-7)
            uniform token[] xformOpOrder = ["xformOp:translate", "xformOp:rotateXYZ", "xformOp:scale"]

            def Xform "Object_2"
            {
                custom string userProperties:blender:object_name = "Object_2"
                float3 xformOp:rotateXYZ = (0, -0, 0)
                float3 xformOp:scale = (0.99999994, 1, 1)
                double3 xformOp:translate = (0, 0, -0.000003814697265625)
                uniform token[] xformOpOrder = ["xformOp:translate", "xformOp:rotateXYZ", "xformOp:scale"]

                def Xform "RootNode"
                {
                    custom string userProperties:blender:object_name = "RootNode"
                    float3 xformOp:rotateXYZ = (0, -0, 0)
                    float3 xformOp:scale = (0.99999994, 1, 1)
                    double3 xformOp:translate = (0, 0, -0.000003814697265625)
                    uniform token[] xformOpOrder = ["xformOp:translate", "xformOp:rotateXYZ", "xformOp:scale"]

                    def SkelRoot "Object_4"
                    {
                        custom string userProperties:blender:object_name = "Object_4"
                        float3 xformOp:rotateXYZ.timeSamples = {
                            0: (0, -0, 0),
                        }
                        float3 xformOp:scale.timeSamples = {
                            0: (0.99999994, 1, 1),
                        }
                        double3 xformOp:translate.timeSamples = {
                            0: (0, 0, -0.000003814697265625),
                        }
                        uniform token[] xformOpOrder = ["xformOp:translate", "xformOp:rotateXYZ", "xformOp:scale"]

                        def Skeleton "Armature" (
                            prepend apiSchemas = ["SkelBindingAPI"]
                        )
                        {
                            uniform matrix4d[] bindTransforms = [( (1, 3.422854533141617e-8, -1.1715933145108092e-15, 0), (0, 3.422854533141617e-8, 1, 0), (3.422854533141617e-8, -1, 0, 0), (0, 0, 0, 1) ), ( (0.016245389357209206, 0.025211509317159653, 0.9995500445365906, 0), (0.0004988156724721193, 0.9996814727783203, -0.02522289752960205, 0), (-0.9998677372932434, 0.0009082461474463344, 0.016227642074227333, 0), (5.822260856628418, -21.472522735595703, 69.0362548828125, 1) ), ( (-0.004317505285143852, -0.030725568532943726, 0.9995183944702148, 0), (-0.0005927185993641615, 0.9995274543762207, 0.030723335221409798, 0), (-0.9999902844429016, -0.0004598870873451233, -0.004333676770329475, 0), (5.9642333984375, -21.252185821533203, 77.77184295654297, 1) ), ( (-0.021883806213736534, 0.00018591375555843115, 0.9997602701187134, 0), (-0.008951174095273018, 0.9999595284461975, -0.00038184408913366497, 0), (-0.9997202157974243, -0.00895748846232891, -0.021881259977817535, 0), (5.924036979675293, -21.540081024169922, 87.09294891357422, 1) ), ( (0.06004021689295769, -0.0038766220677644014, 0.9981881976127625, 0), (0.0008935993537306786, 0.9999920129776001, 0.0038299260195344687, 0), (-0.9981954097747803, 0.000661931000649929, 0.06004323065280914, 0), (5.731644153594971, -21.538415908813477, 95.88373565673828, 1) ), ( (0.016245389357209206, 0.025211509317159653, 0.9995500445365906, 0), (0.0004988156724721193, 0.9996814727783203, -0.02522289752960205, 0), (-0.9998677372932434, 0.0009082461474463344, 0.016227642074227333, 0), (5.822260856628418, -21.472522735595703, 69.0362548828125, 1) ), ( (-0.004317505285143852, -0.030725568532943726, 0.9995183944702148, 0), (-0.0005927185993641615, 0.9995274543762207, 0.030723335221409798, 0), (-0.9999902844429016, -0.0004598870873451233, -0.004333676770329475, 0), (5.9642333984375, -21.252185821533203, 77.77184295654297, 1) ), ( (-0.021883806213736534, 0.00018591375555843115, 0.9997602701187134, 0), (-0.008951174095273018, 0.9999595284461975, -0.00038184408913366497, 0), (-0.9997202157974243, -0.00895748846232891, -0.021881259977817535, 0), (5.924036979675293, -21.540081024169922, 87.09294891357422, 1) ), ( (0.06004021689295769, -0.0038766220677644014, 0.9981881976127625, 0), (0.0008935993537306786, 0.9999920129776001, 0.0038299260195344687, 0), (-0.9981954097747803, 0.000661931000649929, 0.06004323065280914, 0), (5.731644153594971, -21.538415908813477, 95.88373565673828, 1) ), ( (0.016245389357209206, 0.025211509317159653, 0.9995500445365906, 0), (0.0004988156724721193, 0.9996814727783203, -0.02522289752960205, 0), (-0.9998677372932434, 0.0009082461474463344, 0.016227642074227333, 0), (5.822260856628418, -21.472522735595703, 69.0362548828125, 1) ), ( (-0.004317505285143852, -0.030725568532943726, 0.9995183944702148, 0), (-0.0005927185993641615, 0.9995274543762207, 0.030723335221409798, 0), (-0.9999902844429016, -0.0004598870873451233, -0.004333676770329475, 0), (5.9642333984375, -21.252185821533203, 77.77184295654297, 1) ), ( (-0.021883806213736534, 0.00018591375555843115, 0.9997602701187134, 0), (-0.008951174095273018, 0.9999595284461975, -0.00038184408913366497, 0), (-0.9997202157974243, -0.00895748846232891, -0.021881259977817535, 0), (5.924036979675293, -21.540081024169922, 87.09294891357422, 1) ), ( (0.06004021689295769, -0.0038766220677644014, 0.9981881976127625, 0), (0.0008935993537306786, 0.9999920129776001, 0.0038299260195344687, 0), (-0.9981954097747803, 0.000661931000649929, 0.06004323065280914, 0), (5.731644153594971, -21.538415908813477, 95.88373565673828, 1) )]
                            uniform token[] joints = ["_rootJoint", "_rootJoint/Bone001_00", "_rootJoint/Bone001_00/Bone002_01", "_rootJoint/Bone001_00/Bone002_01/Bone003_02", "_rootJoint/Bone001_00/Bone002_01/Bone003_02/Bone004_03", "_rootJoint/Bone005_04", "_rootJoint/Bone005_04/Bone006_05", "_rootJoint/Bone005_04/Bone006_05/Bone007_06", "_rootJoint/Bone005_04/Bone006_05/Bone007_06/Bone008_07", "_rootJoint/Bone009_08", "_rootJoint/Bone009_08/Bone010_09", "_rootJoint/Bone009_08/Bone010_09/Bone011_010", "_rootJoint/Bone009_08/Bone010_09/Bone011_010/Bone012_011"]
                            float[] primvars:blender:bone_lengths = [72.53257, 8.739522, 9.325644, 8.792895, 8.792896, 8.739522, 9.325644, 8.792895, 8.792896, 8.739522, 9.325644, 8.792895, 8.792896] (
                                interpolation = "uniform"
                            )
                            uniform matrix4d[] restTransforms = [( (1, 3.422854533141617e-8, -1.1715933145108092e-15, 0), (0, 3.422854533141617e-8, 1, 0), (3.422854533141617e-8, -1, 0, 0), (0, 0, 0, 1) ), ( (0.016188181936740875, 0.9960251450538635, 0.08758832514286041, 0), (0.0023315551225095987, 0.08756197988986969, -0.9961560368537903, 0), (-0.9998660087585449, 0.01633017510175705, -0.0009047169587574899, 0), (2.5114924907684326, 58.44795608520508, -4.012851715087891, 1) ), ( (0.9836863279342651, 0.008268095552921295, 0.17970167100429535, 0), (-0.008876077830791473, 0.9999569654464722, 0.0025795428082346916, 0), (-0.17967267334461212, -0.004132508300244808, 0.9837175607681274, 0), (8.739498138427734, 0.0000019073486328125, 0.000004291534423828125, 1) ), ( (0.9999947547912598, -0.002784132957458496, -0.0014925450086593628, 0), (0.0027967318892478943, 0.9999601244926453, 0.008494310081005096, 0), (0.0014688670635223389, -0.008498437702655792, 0.9999628067016602, 0), (9.32562255859375, -0.0013561248779296875, -0.00006580352783203125, 0.9999999403953552) ), ( (0.9966346621513367, -0.004795104265213013, -0.08183032274246216, 0), (0.003995321691036224, 0.9999428987503052, -0.009934592992067337, 0), (0.08187330514192581, 0.00957422237843275, 0.9965968132019043, 0), (8.792900085449219, 0.000030517578125, -0.00003147125244140625, 0.9999999403953552) ), ( (0.08344569802284241, 0.9960252046585083, -0.031151341274380684, 0), (-0.9814273715019226, 0.0875609815120697, 0.17068473994731903, 0), (0.17273388803005219, 0.016329878941178322, 0.9848329424858093, 0), (5.708057403564453, 67.71017456054688, -29.66237449645996, 1) ), ( (0.9836865067481995, 0.008267402648925781, 0.1797003448009491, 0), (-0.008875392377376556, 0.9999573230743408, 0.0025797162670642138, 0), (-0.17967131733894348, -0.004132568836212158, 0.9837177991867065, 0), (8.739517211914062, 9.5367431640625e-7, 0.000003814697265625, 1) ), ( (0.9999948740005493, -0.002783671021461487, -0.0014920085668563843, 0), (0.0027962476015090942, 0.9999601244926453, 0.008494148030877113, 0), (0.0014683008193969727, -0.00849827378988266, 0.9999626278877258, 0), (9.32562255859375, -0.0013589859008789062, -0.000072479248046875, 1) ), ( (0.9966347813606262, -0.0047951266169548035, -0.08183037489652634, 0), (0.003995336592197418, 0.9999430179595947, -0.00993458554148674, 0), (0.08187327533960342, 0.00957423821091652, 0.9965969324111938, 0), (8.792892456054688, 0.0000286102294921875, -0.000026702880859375, 1) ), ( (0.007032363209873438, 0.9960252046585083, -0.08879254013299942, 0), (-0.260076642036438, 0.0875607505440712, 0.9616094827651978, 0), (0.9655622839927673, 0.016330482438206673, 0.259658545255661, 0), (25.52578353881836, 87.39549255371094, -17.265281677246094, 1) ), ( (0.987984299659729, 0.09347205609083176, -0.12308242917060852, 0), (-0.09368292987346649, 0.9955936670303345, 0.004085688851773739, 0), (0.12292201817035675, 0.007494091056287289, 0.9923878312110901, 0), (8.739509582519531, 0.0000019073486328125, 0.0000057220458984375, 0.9999999403953552) ), ( (0.9999951124191284, -0.0027850805781781673, -0.0014933645725250244, 0), (0.0027976767159998417, 0.9999600648880005, 0.008494271896779537, 0), (0.001469627022743225, -0.008498439565300941, 0.9999628663063049, 0), (9.325645446777344, -0.001354217529296875, -0.000064849853515625, 1.0000001192092896) ), ( (0.9966347217559814, -0.004795095883309841, -0.08183032274246216, 0), (0.003995313309133053, 0.9999427795410156, -0.009934437461197376, 0), (0.0818733274936676, 0.009574106894433498, 0.9965966939926147, 0), (8.792892456054688, 0.000034332275390625, -0.000030517578125, 1.0000001192092896) )]
                            rel skel:animationSource = </root/Sketchfab_model/_7bdce573fa4f4345b532d79e2adc2223_fbx/Object_2/RootNode/Object_4/Armature/Take_001>

                            def SkelAnimation "Take_001"
                            {
                                uniform token[] joints = ["_rootJoint", "_rootJoint/Bone001_00", "_rootJoint/Bone001_00/Bone002_01", "_rootJoint/Bone001_00/Bone002_01/Bone003_02", "_rootJoint/Bone001_00/Bone002_01/Bone003_02/Bone004_03", "_rootJoint/Bone005_04", "_rootJoint/Bone005_04/Bone006_05", "_rootJoint/Bone005_04/Bone006_05/Bone007_06", "_rootJoint/Bone005_04/Bone006_05/Bone007_06/Bone008_07", "_rootJoint/Bone009_08", "_rootJoint/Bone009_08/Bone010_09", "_rootJoint/Bone009_08/Bone010_09/Bone011_010", "_rootJoint/Bone009_08/Bone010_09/Bone011_010/Bone012_011"]
                                quatf[] rotations = [(0.70710677, 0.70710677, 1.2101618e-8, 1.2101618e-8), (0.52508223, -0.48206094, -0.51775444, 0.4731134), (0.99591184, 0.0016849011, -0.090212405, 0.0043036384), (0.99998975, 0.0042482303, 0.00074036076, -0.0013952306), (0.9991464, -0.00488137, 0.04096087, -0.0021994838), (0.7341389, 0.052563228, 0.069430076, 0.6733919), (0.9959119, 0.0016849593, -0.09021173, 0.004303292), (0.99998975, 0.004248149, 0.0007400851, -0.001394994), (0.9991464, -0.0048813713, 0.04096087, -0.0021994924), (0.5818616, 0.40614435, 0.4530093, 0.53969103), (0.9969913, -0.0008546716, 0.06168673, 0.046929955), (0.99998975, 0.0042482214, 0.00074075547, -0.0013957035), (0.9991464, -0.004881303, 0.040960878, -0.0021994794)]
                                quatf[] rotations.timeSamples = {
                                    0: [(0.70710677, 0.70710677, 1.2101618e-8, 1.2101618e-8), (0.52508223, -0.48206094, -0.51775444, 0.4731134), (0.99591184, 0.0016849011, -0.090212405, 0.0043036384), (0.99998975, 0.0042482303, 0.00074036076, -0.0013952306), (0.9991464, -0.00488137, 0.04096087, -0.0021994838), (0.7341389, 0.052563228, 0.069430076, 0.6733919), (0.9959119, 0.0016849593, -0.09021173, 0.004303292), (0.99998975, 0.004248149, 0.0007400851, -0.001394994), (0.9991464, -0.0048813713, 0.04096087, -0.0021994924), (0.5818616, 0.40614435, 0.4530093, 0.53969103), (0.9969913, -0.0008546716, 0.06168673, 0.046929955), (0.99998975, 0.0042482214, 0.00074075547, -0.0013957035), (0.9991464, -0.004881303, 0.040960878, -0.0021994794)],
                                    1: [(0.70710677, 0.70710677, 1.2101618e-8, 1.2101618e-8), (-0.4955869, 0.4744718, 0.5253267, -0.5032912), (0.9973427, -0.0008743305, -0.034933083, -0.063925095), (0.99998975, 0.0042482293, 0.0007403607, -0.0013952362), (0.9991464, -0.00488137, 0.040960886, -0.002199467), (0.7209804, 0.08055882, 0.041967742, 0.68697613), (0.99728006, 0.00038764658, -0.070447676, -0.021668207), (0.99998975, 0.0042482233, 0.00074046134, -0.0013952308), (0.9991464, -0.00488137, 0.04096089, -0.002199482), (0.58551925, 0.4370545, 0.42277783, 0.5361059), (0.99302024, 0.0021196436, 0.10726069, 0.049005084), (0.99998975, 0.004248164, 0.00074011105, -0.0013948049), (0.9991464, -0.0048813787, 0.040960893, -0.0021994826)],
                                    2: [(0.70710677, 0.70710677, 1.2101618e-8, 1.2101618e-8), (0.49169338, -0.49422103, -0.50599855, 0.50788647), (0.99380296, -0.0024381322, -0.05725328, -0.09524604), (0.99998975, 0.00424823, 0.00074039056, -0.0013952251), (0.9991464, -0.00488137, 0.040960886, -0.0021994966), (0.70367146, 0.07138447, 0.051409174, 0.7050587), (0.9943627, -0.00019891758, -0.08941588, -0.0569878), (0.99998975, 0.004248186, 0.00074018555, -0.0013947387), (0.9991464, -0.0048813736, 0.040960878, -0.0021994873), (0.5658481, 0.4390327, 0.4214405, 0.556286), (0.996249, 0.004341544, 0.08575557, 0.010724299), (0.99998975, 0.0042482256, 0.0007402192, -0.0013952274), (0.9991464, -0.004881371, 0.040960893, -0.0021994815)],
                                    3: [(0.70710677, 0.70710677, 1.2101618e-8, 1.2101618e-8), (-0.5104756, 0.5143034, 0.4858689, -0.4887107), (0.99273413, 0.002262973, -0.11521557, -0.034629483), (0.99998975, 0.0042482303, 0.0007403682, -0.0013952269), (0.9991464, -0.00488137, 0.04096089, -0.0021994784), (0.7003242, 0.043786358, 0.07873624, 0.70811677), (0.9938488, -0.0011151566, -0.08555106, -0.070316195), (0.99998975, 0.0042481427, 0.0007402098, -0.0013949977), (0.9991464, -0.0048813643, 0.04096088, -0.0021994817), (0.54834235, 0.41739967, 0.44268933, 0.57369363), (0.9976843, 0.003910646, 0.044231646, -0.051520497), (0.99998975, 0.0042481693, 0.0007402602, -0.0013952754), (0.9991464, -0.0048813634, 0.04096089, -0.0021994796)],
                                    4: [(0.70710677, 0.70710677, 1.2101618e-8, 1.2101618e-8), (0.52623874, -0.5175031, -0.48240873, 0.47174695), (0.9924268, 0.0037930757, -0.12274217, -0.0029892488), (0.99998975, 0.0042482303, 0.00074037194, -0.0013952298), (0.9991464, -0.00488137, 0.040960867, -0.0021994794), (0.70780593, 0.028734664, 0.09303559, 0.6996638), (0.99164146, -0.0009967209, -0.10523082, -0.074650384), (0.99998975, 0.004248233, 0.0007404296, -0.0013952325), (0.9991464, -0.004881362, 0.040960878, -0.002199489), (0.5469693, 0.40016344, 0.45876932, 0.57465166), (0.99873936, 0.0009856928, -0.0022985097, -0.05013415), (0.99998975, 0.0042482424, 0.0007402135, -0.0013949715), (0.9991464, -0.0048813666, 0.040960878, -0.0021994738)],
                                    5: [(0.70710677, 0.70710677, 1.2101618e-8, 1.2101618e-8), (0.53236276, -0.4895633, -0.51154095, 0.46394342), (0.99616, -0.00075146265, -0.069821075, 0.052817877), (0.99998975, 0.004248231, 0.0007403794, -0.0013952267), (0.9991464, -0.0048813694, 0.040960878, -0.0021994843), (0.734059, 0.04071618, 0.07900122, 0.6732447), (0.99631333, 0.00029047995, -0.07345686, -0.044314273), (0.99998975, 0.0042482316, 0.0007404073, -0.001395523), (0.9991464, -0.0048813596, 0.040960878, -0.0021994817), (0.57665163, 0.39607355, 0.46103856, 0.54593235), (0.9999281, 0.0010721611, 0.009502848, -0.0072292406), (0.99998975, 0.0042482377, 0.0007402303, -0.0013951766), (0.9991464, -0.00488137, 0.040960886, -0.00219948)],
                                    6: [(0.70710677, 0.70710677, 1.2101618e-8, 1.2101618e-8), (-0.5080129, 0.46226043, 0.5405472, -0.4858466), (0.9967644, -0.0051058554, 0.0053009493, 0.08004075), (0.99998975, 0.0042482316, 0.0007403635, -0.0013952325), (0.9991464, -0.00488137, 0.040960878, -0.0021994854), (0.7406272, 0.07504504, 0.04170327, 0.6664086), (0.99897903, 0.0032357676, 0.02049781, -0.040128794), (0.99998975, 0.00424819, 0.00074051385, -0.0013954784), (0.9991464, -0.0048813587, 0.040960878, -0.0021994668), (0.6022313, 0.42135322, 0.43311092, 0.52172196), (0.99578005, 0.00805972, 0.089440495, -0.018908797), (0.99998975, 0.004248192, 0.00074036623, -0.0013953517), (0.9991464, -0.004881371, 0.04096086, -0.0021994824)],
                                    7: [(0.70710677, 0.70710677, 1.2101618e-8, 1.2101618e-8), (-0.4749099, 0.4646624, 0.540058, -0.51661086), (0.997205, 0.00020037971, 0.063778415, 0.038914956), (0.99998975, 0.004248231, 0.0007403048, -0.0013952316), (0.9991464, -0.0048813694, 0.040960878, -0.0021994854), (0.71897435, 0.097067684, 0.016659183, 0.68802345), (0.9922676, 0.007050949, 0.07001066, -0.102244), (0.99998975, 0.004248153, 0.0007404818, -0.0013955827), (0.9991464, -0.0048813773, 0.04096088, -0.0021994747), (0.5974257, 0.45154053, 0.40035483, 0.528119), (0.98918337, 0.015004809, 0.12272133, -0.07893411), (0.99998975, 0.004248144, 0.0007402787, -0.0013951578), (0.9991464, -0.004881363, 0.040960867, -0.00219949)],
                                    8: [(0.70710677, 0.70710677, 1.2101618e-8, 1.2101618e-8), (0.46018448, -0.48778388, -0.5190981, 0.529938), (0.9971531, 0.005438368, 0.07380528, -0.014452872), (0.99998975, 0.0042482307, 0.00074037095, -0.00139523), (0.9991464, -0.00488137, 0.040960878, -0.0021994843), (0.6934527, 0.09241472, 0.018851668, 0.71430206), (0.9833512, 0.0016548034, 0.0553679, -0.17306693), (0.99998975, 0.004248225, 0.0007404331, -0.0013952102), (0.9991464, -0.0048813773, 0.040960874, -0.002199508), (0.574723, 0.4617357, 0.38849112, 0.5527823), (0.98650366, 0.009813745, 0.09105981, -0.13572878), (0.99998975, 0.0042482344, 0.0007404632, -0.0013952438), (0.9991464, -0.0048813745, 0.040960878, -0.0021994743)],
                                    9: [(0.70710677, 0.70710677, 1.2101618e-8, 1.2101618e-8), (0.4710839, -0.5130541, -0.49525762, 0.51920646), (0.9993682, -0.0009124475, 0.020462755, 0.029045468), (0.99998975, 0.0042482303, 0.00074034557, -0.0013952324), (0.9991464, -0.00488137, 0.04096088, -0.002199478), (0.68219584, 0.06795063, 0.042525604, 0.72676206), (0.97737426, 0.0009008275, 0.06625913, -0.20086929), (0.99998975, 0.0042482233, 0.0007403347, -0.0013954785), (0.9991464, -0.004881327, 0.040960874, -0.0021995008), (0.552509, 0.4477977, 0.40240932, 0.5764354), (0.9760254, -0.0016257819, 0.057936486, -0.2097979), (0.99998975, 0.0042481883, 0.00074017444, -0.0013952996), (0.9991464, -0.004881379, 0.04096087, -0.0021994484)],
                                    10: [(0.70710677, 0.70710677, 1.2101618e-8, 1.2101618e-8), (-0.49186414, 0.49628565, 0.5141141, -0.49745044), (0.9918841, -0.01285472, 0.023115156, 0.12436394), (0.99998975, 0.0042482303, 0.0007403626, -0.0013952325), (0.9991464, -0.00488137, 0.040960878, -0.002199482), (0.7099981, 0.062062968, 0.046323374, 0.6999322), (0.98233, 0.008907037, 0.09419612, -0.16147912), (0.99998975, 0.0042482335, 0.0007403905, -0.0013955976), (0.9991464, -0.004881372, 0.04096087, -0.002199523), (0.5739165, 0.42841658, 0.42055053, 0.5569707), (0.9804006, -0.0011215025, 0.051886067, -0.19005582), (0.99998975, 0.0042481823, 0.00074036064, -0.0013954485), (0.9991464, -0.004881363, 0.040960886, -0.0021994999)],
                                    11: [(0.70710677, 0.70710677, 1.2101618e-8, 1.2101618e-8), (-0.48505482, 0.45313948, 0.55683005, -0.4993263), (0.9761047, -0.023982828, 0.11504245, 0.18278332), (0.99998975, 0.004248235, 0.00074037374, -0.0013952397), (0.9991464, -0.0048813694, 0.04096089, -0.002199463), (0.7383435, 0.09123384, 0.013649839, 0.6680861), (0.9788099, 0.02260241, 0.15273215, -0.13451123), (0.99998975, 0.0042481567, 0.000740439, -0.001395359), (0.9991464, -0.004881381, 0.04096089, -0.002199478), (0.61537826, 0.4359081, 0.4082239, 0.5144385), (0.98549813, 0.009392606, 0.090057954, -0.14350873), (0.99998975, 0.0042482363, 0.00074043893, -0.0013952922), (0.9991464, -0.0048813736, 0.040960878, -0.0021994924)],
                                    12: [(0.70710677, 0.70710677, 1.2101618e-8, 1.2101618e-8), (-0.5081516, 0.45976335, 0.54939556, -0.47808385), (0.98475534, -0.017247146, 0.08396955, 0.1513559), (0.99998975, 0.0042482284, 0.00074028625, -0.0013952141), (0.9991464, -0.004881368, 0.04096088, -0.0021995003), (0.74749464, 0.07070343, 0.036121864, 0.6595059), (0.99197704, 0.0062876567, 0.0636809, -0.10902623), (0.99998975, 0.0042482275, 0.0007401578, -0.0013954858), (0.9991464, -0.0048813783, 0.040960867, -0.0021994777), (0.6110222, 0.41398266, 0.43209344, 0.51823306), (0.9966098, 0.0031086, 0.0307236, -0.07625798), (0.99998975, 0.0042482424, 0.00074020855, -0.0013952026), (0.9991464, -0.004881295, 0.040960886, -0.0021994705)],
                                    13: [(0.70710677, 0.70710677, 1.2101618e-8, 1.2101618e-8), (-0.51712924, 0.47698614, 0.53176254, -0.47147658), (0.99546254, -0.0058769686, 0.046249274, 0.08295031), (0.99998975, 0.0042482303, 0.00074036815, -0.0013952362), (0.9991464, -0.0048813703, 0.04096088, -0.002199481), (0.7397577, 0.054571208, 0.054333273, 0.66845226), (0.99360216, -0.0022839976, -0.021494405, -0.1108493), (0.99998975, 0.0042482307, 0.00074014656, -0.0013951655), (0.9991464, -0.0048813107, 0.04096088, -0.0021994857), (0.5947119, 0.4051839, 0.44329584, 0.53444606), (0.9990779, 0.0006884908, -0.015660288, -0.039969362), (0.99998975, 0.004248219, 0.0007405096, -0.001395683), (0.9991464, -0.004881349, 0.04096088, -0.002199478)],
                                    14: [(0.70710677, 0.70710677, 1.2101618e-8, 1.2101618e-8), (-0.49986613, 0.45930272, 0.55025613, -0.48620275), (0.9936147, -0.0058598677, 0.0700079, 0.08828582), (0.99998975, 0.004248232, 0.00074026757, -0.0013952343), (0.9991464, -0.00488137, 0.040960874, -0.0021994733), (0.7428281, 0.077218965, 0.029221691, 0.6643717), (0.9958997, 0.0034051512, 0.03300509, -0.084159814), (0.99998975, 0.004248226, 0.0007407918, -0.0013956717), (0.9991464, -0.0048813424, 0.040960878, -0.0021995006), (0.6107939, 0.42209226, 0.42376658, 0.518836), (0.9977049, 0.005531595, 0.059647102, -0.03156826), (0.99998975, 0.004248191, 0.00074061024, -0.0013957055), (0.9991464, -0.004881335, 0.040960886, -0.0021994922)],
                                }
                                half3[] scales = [(1, 1, 1), (1, 1, 1), (1, 1, 1), (1, 1, 1), (1, 1, 1), (1, 1, 1), (1, 1, 1), (1, 1, 1), (1, 1, 1), (1, 1, 1), (1, 1, 1), (1, 1, 1), (1, 1, 1)]
                                float3[] translations = [(0, 0, 0), (2.5114925, 58.447956, -4.0128517), (8.739498, 0.0000019073486, 0.0000042915344), (9.325623, -0.0013561249, -0.00006580353), (8.7929, 0.000030517578, -0.000031471252), (5.7080574, 67.710175, -29.662374), (8.739517, 9.536743e-7, 0.0000038146973), (9.325623, -0.0013589859, -0.00007247925), (8.792892, 0.00002861023, -0.00002670288), (25.525784, 87.39549, -17.265282), (8.73951, 0.0000019073486, 0.000005722046), (9.325645, -0.0013542175, -0.00006484985), (8.792892, 0.000034332275, -0.000030517578)]
                                float3[] translations.timeSamples = {
                                    0: [(0, 0, 0), (2.5114925, 58.447956, -4.0128517), (8.739498, 0.0000019073486, 0.0000042915344), (9.325623, -0.0013561249, -0.00006580353), (8.7929, 0.000030517578, -0.000031471252), (5.7080574, 67.710175, -29.662374), (8.739517, 9.536743e-7, 0.0000038146973), (9.325623, -0.0013589859, -0.00007247925), (8.792892, 0.00002861023, -0.00002670288), (25.525784, 87.39549, -17.265282), (8.73951, 0.0000019073486, 0.000005722046), (9.325645, -0.0013542175, -0.00006484985), (8.792892, 0.000034332275, -0.000030517578)],
                                    1: [(0, 0, 0), (2.5114925, 58.447956, -4.0128517), (8.739521, 9.536743e-7, 0.0000042915344), (9.32563, -0.0013589859, -0.00006389618), (8.792885, 0.000029563904, -0.00002861023), (5.7080574, 67.710175, -29.662374), (8.739525, 0.0000019073486, 0.0000038146973), (9.325638, -0.0013570786, -0.00007247925), (8.792892, 0.000030994415, -0.00002670288), (25.525784, 87.39549, -17.265282), (8.73951, 0, 0.0000076293945), (9.32563, -0.0013542175, -0.000061035156), (8.792892, 0.00002861023, -0.000030517578)],
                                    2: [(0, 0, 0), (2.5114925, 58.447956, -4.0128517), (8.739513, 0.00000166893, 0.0000047683716), (9.32563, -0.0013580322, -0.00006580353), (8.7929, 0.000032424927, -0.000030517578), (5.7080574, 67.710175, -29.662374), (8.73951, 9.536743e-7, 0.0000038146973), (9.325645, -0.0013575554, -0.00006866455), (8.792877, 0.000027894974, -0.00002670288), (25.525784, 87.39549, -17.265282), (8.739517, 0.0000019073486, 0.0000038146973), (9.325623, -0.0013580322, -0.00006484985), (8.792892, 0.00002670288, -0.000034332275)],
                                    3: [(0, 0, 0), (2.5114925, 58.447956, -4.0128517), (8.739513, 0.0000021457672, 0.000004261732), (9.32563, -0.0013580322, -0.00006580353), (8.792885, 0.000030517578, -0.000030517578), (5.7080574, 67.710175, -29.662374), (8.739502, 0, 0.000009536743), (9.32563, -0.0013559163, -0.00006484985), (8.792877, 0.000028848648, -0.00002670288), (25.525784, 87.39549, -17.265282), (8.739517, -0.0000019073486, 0.000005722046), (9.325645, -0.0013570786, -0.00006484985), (8.7929, 0.0000333786, -0.000034332275)],
                                    4: [(0, 0, 0), (2.5114925, 58.447956, -4.0128517), (8.739532, 4.7683716e-7, 0.0000042915344), (9.325638, -0.0013589859, -0.00006484985), (8.7929, 0.000030517578, -0.000029563904), (5.7080574, 67.710175, -29.662374), (8.73951, 0.0000019073486, 0.0000038146973), (9.325615, -0.0013575554, -0.00007247925), (8.792885, 0.000029802322, -0.00002670288), (25.525784, 87.39549, -17.265282), (8.739502, 0, 0.0000076293945), (9.325638, -0.0013570786, -0.000062942505), (8.792885, 0.000025749207, -0.000024795532)],
                                    5: [(0, 0, 0), (2.5114925, 58.447956, -4.0128517), (8.739502, 9.536743e-7, 0.0000047683716), (9.325638, -0.001357317, -0.00006580353), (8.792885, 0.00003027916, -0.000027656555), (5.7080574, 67.710175, -29.662374), (8.73951, 9.536743e-7, 0.0000038146973), (9.325645, -0.0013554096, -0.00006866455), (8.792892, 0.000028371811, -0.000030517578), (25.525784, 87.39549, -17.265282), (8.73951, 0.0000038146973, 0.000005722046), (9.325653, -0.0013580322, -0.00007247925), (8.792892, 0.000030517578, -0.00002861023)],
                                    6: [(0, 0, 0), (2.5114925, 58.447956, -4.0128517), (8.739498, 0, 0.0000042915344), (9.325638, -0.0013560057, -0.00006484985), (8.792885, 0.000030577183, -0.000029087067), (5.7080574, 67.710175, -29.662374), (8.739517, 0.0000014305115, 0.0000076293945), (9.325638, -0.0013566017, -0.0000705719), (8.7929, 0.000030755997, -0.00002861023), (25.525784, 87.39549, -17.265282), (8.73951, 0.0000019073486, 0.000005722046), (9.32563, -0.0013542175, -0.00006484985), (8.792892, 0.000030517578, -0.000030517578)],
                                    7: [(0, 0, 0), (2.5114925, 58.447956, -4.0128517), (8.739506, 0.0000014305115, 0.0000047683716), (9.32563, -0.0013581514, -0.0000654459), (8.792892, 0.000030875206, -0.000029444695), (5.7080574, 67.710175, -29.662374), (8.739517, 0.000002861023, 0.0000076293945), (9.325645, -0.0013580322, -0.0000667572), (8.792892, 0.00002861023, -0.00002861023), (25.525784, 87.39549, -17.265282), (8.739517, 0, 0.0000038146973), (9.325623, -0.0013537407, -0.00006484985), (8.792908, 0.0000333786, -0.000034332275)],
                                    8: [(0, 0, 0), (2.5114925, 58.447956, -4.0128517), (8.739513, 0.000002503395, 0.0000047683716), (9.325645, -0.0013577938, -0.00006484985), (8.792892, 0.000030755997, -0.00002849102), (5.7080574, 67.710175, -29.662374), (8.739517, 0.0000038146973, 0.0000076293945), (9.325638, -0.0013532639, -0.00006484985), (8.792892, 0.000031471252, -0.00002670288), (25.525784, 87.39549, -17.265282), (8.739502, -0.0000038146973, 0.0000104904175), (9.325638, -0.0013561174, -0.0000667572), (8.792892, 0.000028848648, -0.000030517578)],
                                    9: [(0, 0, 0), (2.5114925, 58.447956, -4.0128517), (8.73951, 0.0000021010637, 0.000005722046), (9.325638, -0.0013570786, -0.00006556511), (8.792892, 0.000030517578, -0.000029444695), (5.7080574, 67.710175, -29.662374), (8.739525, -9.536743e-7, 0.0000019073486), (9.325623, -0.0013618469, -0.00006866455), (8.792885, 0.000030517578, -0.000030517578), (25.525784, 87.39549, -17.265282), (8.739517, 0.0000019073486, 0.0000019073486), (9.325623, -0.0013599396, -0.0000667572), (8.7929, 0.000036239624, -0.000032424927)],
                                    10: [(0, 0, 0), (2.5114925, 58.447956, -4.0128517), (8.73951, 0, 0.0000052452087), (9.325638, -0.0013570786, -0.000065505505), (8.792892, 0.000030517578, -0.000029146671), (5.7080574, 67.710175, -29.662374), (8.739517, 0, 0), (9.325638, -0.0013561249, -0.00006484985), (8.792885, 0.000025749207, -0.000034332275), (25.525784, 87.39549, -17.265282), (8.739517, 0.0000019073486, 0.0000038146973), (9.325623, -0.0013599396, -0.000061035156), (8.7929, 0.000032424927, -0.000032424927)],
                                    11: [(0, 0, 0), (2.5114925, 58.447956, -4.0128517), (8.739513, 9.536743e-7, 0.0000047683716), (9.325645, -0.0013599396, -0.000064373016), (8.792885, 0.000031471252, -0.00002861023), (5.7080574, 67.710175, -29.662374), (8.739517, -9.536743e-7, 0.0000038146973), (9.325645, -0.0013608932, -0.00006484985), (8.792892, 0.000027656555, -0.000030517578), (25.525784, 87.39549, -17.265282), (8.739502, 0.0000019073486, 0.000002861023), (9.325638, -0.0013580322, -0.0000667572), (8.792885, 0.000024795532, -0.00002861023)],
                                    12: [(0, 0, 0), (2.5114925, 58.447956, -4.0128517), (8.739506, 0, 0.000005722046), (9.325645, -0.0013561249, -0.00006580353), (8.792892, 0.000029563904, -0.00002861023), (5.7080574, 67.710175, -29.662374), (8.739502, 0.000004529953, 0.0000038146973), (9.325615, -0.0013618469, -0.000059127808), (8.792885, 0.000030517578, -0.000032424927), (25.525784, 87.39549, -17.265282), (8.739517, 0.0000038146973, 0.000009536743), (9.325623, -0.0013606548, -0.00006484985), (8.79287, 0.000033140182, -0.000034332275)],
                                    13: [(0, 0, 0), (2.5114925, 58.447956, -4.0128517), (8.73951, 9.536743e-7, 0.0000042915344), (9.32563, -0.0013577938, -0.00006580353), (8.792892, 0.000028729439, -0.00002861023), (5.7080574, 67.710175, -29.662374), (8.739525, 0.0000023841858, 0.000005722046), (9.325645, -0.0013618469, -0.000061035156), (8.792885, 0.00002861023, -0.000030517578), (25.525784, 87.39549, -17.265282), (8.739525, 0.0000047683716, 0.0000019073486), (9.32563, -0.0013599396, -0.00006580353), (8.792885, 0.0000333786, -0.000032424927)],
                                    14: [(0, 0, 0), (2.5114925, 58.447956, -4.0128517), (8.739517, 9.536743e-7, 0.0000042915344), (9.325623, -0.0013571978, -0.00006532669), (8.792885, 0.000029802322, -0.000030040741), (5.7080574, 67.710175, -29.662374), (8.739502, 0.0000014305115, 0.0000038146973), (9.32563, -0.0013561249, -0.00006866455), (8.792892, 0.000030517578, -0.00002861023), (25.525784, 87.39549, -17.265282), (8.73951, -9.536743e-7, 0.0000076293945), (9.32563, -0.001352787, -0.0000667572), (8.792885, 0.000029563904, -0.00002861023)],
                                }
                            }
                        }

                        def Xform "Object_7"
                        {
                            custom string userProperties:blender:object_name = "Object_7"
                            float3 xformOp:rotateXYZ = (0, -0, 0)
                            float3 xformOp:scale = (0.99999994, 1, 1)
                            double3 xformOp:translate = (0, 0, -0.000003814697265625)
                            uniform token[] xformOpOrder = ["xformOp:translate", "xformOp:rotateXYZ", "xformOp:scale"]

                            def Mesh "candleflame001_candleflame_0" (
                                active = true
                                prepend apiSchemas = ["MaterialBindingAPI", "SkelBindingAPI"]
                            )
                            {
                                uniform bool doubleSided = 1
                                float3[] extent = [(1.6740232, -24.98583, 69.036255), (9.706836, -18.02921, 95.889755)]
                                int[] faceVertexCounts = [3, 3, 3, 3, 3, 3, 3, 3, 3, 3, 3, 3, 3, 3, 3, 3, 3, 3, 3, 3, 3, 3, 3, 3, 3, 3, 3, 3, 3, 3, 3, 3, 3, 3, 3, 3, 3, 3, 3, 3, 3, 3, 3, 3, 3, 3, 3, 3, 3, 3, 3, 3, 3, 3, 3, 3, 3, 3, 3, 3, 3, 3, 3, 3, 3, 3, 3, 3, 3, 3, 3, 3, 3, 3, 3, 3, 3, 3, 3, 3, 3, 3, 3, 3, 3, 3, 3, 3, 3, 3, 3, 3]
                                int[] faceVertexIndices = [0, 1, 2, 0, 2, 3, 4, 5, 1, 4, 1, 0, 6, 7, 8, 6, 8, 9, 10, 11, 7, 10, 7, 6, 12, 13, 11, 12, 11, 10, 3, 2, 13, 3, 13, 12, 14, 15, 16, 14, 16, 17, 18, 19, 20, 18, 20, 21, 22, 23, 18, 22, 18, 21, 24, 16, 15, 24, 15, 25, 26, 27, 28, 26, 28, 29, 30, 26, 29, 30, 29, 31, 32, 33, 34, 32, 34, 35, 36, 32, 35, 36, 35, 37, 38, 36, 37, 38, 37, 39, 27, 38, 39, 27, 39, 28, 40, 41, 2, 40, 2, 1, 42, 40, 1, 42, 1, 5, 43, 44, 8, 43, 8, 7, 45, 43, 7, 45, 7, 11, 46, 45, 11, 46, 11, 13, 41, 46, 13, 41, 13, 2, 47, 48, 49, 47, 49, 50, 50, 49, 27, 50, 27, 26, 41, 40, 51, 41, 51, 52, 52, 51, 29, 52, 29, 28, 53, 47, 50, 53, 50, 54, 54, 50, 26, 54, 26, 30, 40, 42, 55, 40, 55, 51, 51, 55, 31, 51, 31, 29, 56, 57, 58, 56, 58, 59, 59, 58, 33, 59, 33, 32, 44, 43, 60, 44, 60, 61, 61, 60, 35, 61, 35, 34, 62, 56, 59, 62, 59, 63, 63, 59, 32, 63, 32, 36, 43, 45, 64, 43, 64, 60, 60, 64, 37, 60, 37, 35, 65, 62, 63, 65, 63, 66, 66, 63, 36, 66, 36, 38, 45, 46, 67, 45, 67, 64, 64, 67, 39, 64, 39, 37, 48, 65, 66, 48, 66, 49, 49, 66, 38, 49, 38, 27, 46, 41, 52, 46, 52, 67, 67, 52, 28, 67, 28, 39]
                                rel material:binding = </root/_materials/candleflame>
                                normal3f[] normals = [(0.35034955, 0.6068294, -0.71345174), (0.44409546, 0.76920724, -0.45945558), (0.8882009, 0.0000057216685, -0.45945537), (0.35034955, 0.6068294, -0.71345174), (0.8882009, 0.0000057216685, -0.45945537), (0.7007054, 0.0000053232775, -0.71345073), (-0.350302, 0.6068494, -0.7134581), (-0.44410765, 0.7691951, -0.45946422), (0.44409546, 0.76920724, -0.45945558), (-0.350302, 0.6068494, -0.7134581), (0.44409546, 0.76920724, -0.45945558), (0.35034955, 0.6068294, -0.71345174), (-0.70070255, -0.0000031225456, -0.71345353), (-0.88820064, -0.000006226606, -0.45945573), (-0.44411027, 0.76918495, -0.45947862), (-0.70070255, -0.0000031225456, -0.71345353), (-0.44411027, 0.76918495, -0.45947862), (-0.3504027, 0.6068167, -0.71343637), (-0.350349, -0.6068286, -0.7134527), (-0.4440956, -0.769207, -0.45945585), (-0.88820064, -0.000006226606, -0.45945573), (-0.350349, -0.6068286, -0.7134527), (-0.88820064, -0.000006226606, -0.45945573), (-0.70070255, -0.0000031225456, -0.71345353), (0.3503569, -0.60682476, -0.713452), (0.4441056, -0.7692012, -0.45945585), (-0.4440956, -0.769207, -0.45945585), (0.3503569, -0.60682476, -0.713452), (-0.4440956, -0.769207, -0.45945585), (-0.350349, -0.6068286, -0.7134527), (0.7007054, 0.0000053232775, -0.71345073), (0.8882009, 0.0000057216685, -0.45945537), (0.4441056, -0.7692012, -0.45945585), (0.7007054, 0.0000053232775, -0.71345073), (0.4441056, -0.7692012, -0.45945585), (0.3503569, -0.60682476, -0.713452), (0, 0, -1), (0, 0, -1), (0, 0, -1), (0, 0, -1), (0, 0, -1), (0, 0, -1), (0, 0, 1), (0, 0, 1), (0, 0, 1), (0, 0, 1), (0, 0, 1), (0, 0, 1), (0, 0, 0.99999994), (0, 0, 0.99999994), (0, 0, 0.99999994), (0, 0, 1), (0, 0, 1), (0, 0, 1), (0, 0, -1), (0, 0, -1), (0, 0, -1), (0, 0, -1), (0, 0, -1), (0, 0, -1), (0.49272317, 0.85339457, 0.17012252), (0.98542297, -0.000012060412, 0.17012207), (0.9854231, -0.000018412387, 0.17012183), (0.49272317, 0.85339457, 0.17012252), (0.9854231, -0.000018412387, 0.17012183), (0.49272737, 0.8533923, 0.17012174), (-0.4927059, 0.85340923, 0.1700991), (0.49272317, 0.85339457, 0.17012252), (0.49272737, 0.8533923, 0.17012174), (-0.4927059, 0.85340923, 0.1700991), (0.49272737, 0.8533923, 0.17012174), (-0.49270198, 0.8534022, 0.17014512), (-0.98542297, 0.00001318461, 0.170122), (-0.49272054, 0.8534007, 0.17009892), (-0.49271774, 0.8533932, 0.17014492), (-0.98542297, 0.00001318461, 0.170122), (-0.49271774, 0.8533932, 0.17014492), (-0.98542315, 0.000017454655, 0.17012139), (-0.4927227, -0.85339487, 0.17012225), (-0.98542297, 0.00001318461, 0.170122), (-0.98542315, 0.000017454655, 0.17012139), (-0.4927227, -0.85339487, 0.17012225), (-0.98542315, 0.000017454655, 0.17012139), (-0.49272716, -0.8533924, 0.17012139), (0.49270162, -0.8534071, 0.1701222), (-0.4927227, -0.85339487, 0.17012225), (-0.49272716, -0.8533924, 0.17012139), (0.49270162, -0.8534071, 0.1701222), (-0.49272716, -0.8533924, 0.17012139), (0.492696, -0.8534104, 0.17012168), (0.98542297, -0.000012060412, 0.17012207), (0.49270162, -0.8534071, 0.1701222), (0.492696, -0.8534104, 0.17012168), (0.98542297, -0.000012060412, 0.17012207), (0.492696, -0.8534104, 0.17012168), (0.9854231, -0.000018412387, 0.17012183), (0.49980196, 0.8656816, -0.028165154), (0.9996032, 1.7882737e-8, -0.028165419), (0.8882009, 0.0000057216685, -0.45945537), (0.49980196, 0.8656816, -0.028165154), (0.8882009, 0.0000057216685, -0.45945537), (0.44409546, 0.76920724, -0.45945558), (-0.4997915, 0.8656887, -0.028136149), (0.49980196, 0.8656816, -0.028165154), (0.44409546, 0.76920724, -0.45945558), (-0.4997915, 0.8656887, -0.028136149), (0.44409546, 0.76920724, -0.45945558), (-0.44410765, 0.7691951, -0.45946422), (-0.99960333, -8.106844e-7, -0.028165555), (-0.49981284, 0.8656741, -0.02820433), (-0.44411027, 0.76918495, -0.45947862), (-0.99960333, -8.106844e-7, -0.028165555), (-0.44411027, 0.76918495, -0.45947862), (-0.88820064, -0.000006226606, -0.45945573), (-0.499802, -0.86568165, -0.028165393), (-0.99960333, -8.106844e-7, -0.028165555), (-0.88820064, -0.000006226606, -0.45945573), (-0.499802, -0.86568165, -0.028165393), (-0.88820064, -0.000006226606, -0.45945573), (-0.4440956, -0.769207, -0.45945585), (0.49980137, -0.865682, -0.028164871), (-0.499802, -0.86568165, -0.028165393), (-0.4440956, -0.769207, -0.45945585), (0.49980137, -0.865682, -0.028164871), (-0.4440956, -0.769207, -0.45945585), (0.4441056, -0.7692012, -0.45945585), (0.9996032, 1.7882737e-8, -0.028165419), (0.49980137, -0.865682, -0.028164871), (0.4441056, -0.7692012, -0.45945585), (0.9996032, 1.7882737e-8, -0.028165419), (0.4441056, -0.7692012, -0.45945585), (0.8882009, 0.0000057216685, -0.45945537), (0.49271673, 0.85339856, 0.17012122), (0.985423, -0.0000061704445, 0.17012198), (0.98542297, 1.09143066e-7, 0.17012262), (0.49271673, 0.85339856, 0.17012122), (0.98542297, 1.09143066e-7, 0.17012262), (0.4927119, 0.853401, 0.17012253), (0.4927119, 0.853401, 0.17012253), (0.98542297, 1.09143066e-7, 0.17012262), (0.98542297, -0.000012060412, 0.17012207), (0.4927119, 0.853401, 0.17012253), (0.98542297, -0.000012060412, 0.17012207), (0.49272317, 0.85339457, 0.17012252), (0.9996032, 1.7882737e-8, -0.028165419), (0.49980196, 0.8656816, -0.028165154), (0.49237502, 0.8527933, 0.17409903), (0.9996032, 1.7882737e-8, -0.028165419), (0.49237502, 0.8527933, 0.17409903), (0.9847281, -0.000012283408, 0.17409924), (0.9847281, -0.000012283408, 0.17409924), (0.49237502, 0.8527933, 0.17409903), (0.49272737, 0.8533923, 0.17012174), (0.9847281, -0.000012283408, 0.17409924), (0.49272737, 0.8533923, 0.17012174), (0.9854231, -0.000018412387, 0.17012183), (-0.4927071, 0.85341185, 0.17008194), (0.49271673, 0.85339856, 0.17012122), (0.4927119, 0.853401, 0.17012253), (-0.4927071, 0.85341185, 0.17008194), (0.4927119, 0.853401, 0.17012253), (-0.49270582, 0.8534093, 0.17009905), (-0.49270582, 0.8534093, 0.17009905), (0.4927119, 0.853401, 0.17012253), (0.49272317, 0.85339457, 0.17012252), (-0.49270582, 0.8534093, 0.17009905), (0.49272317, 0.85339457, 0.17012252), (-0.4927059, 0.85340923, 0.1700991), (0.49980196, 0.8656816, -0.028165154), (-0.4997915, 0.8656887, -0.028136149), (-0.49237433, 0.85279065, 0.17411393), (0.49980196, 0.8656816, -0.028165154), (-0.49237433, 0.85279065, 0.17411393), (0.49237502, 0.8527933, 0.17409903), (0.49237502, 0.8527933, 0.17409903), (-0.49237433, 0.85279065, 0.17411393), (-0.49270198, 0.8534022, 0.17014512), (0.49237502, 0.8527933, 0.17409903), (-0.49270198, 0.8534022, 0.17014512), (0.49272737, 0.8533923, 0.17012174), (-0.9854229, 0.000008820851, 0.17012283), (-0.49271426, 0.85340333, 0.17010453), (-0.49272084, 0.8534006, 0.17009906), (-0.9854229, 0.000008820851, 0.17012283), (-0.49272084, 0.8534006, 0.17009906), (-0.985423, -0.0000019140998, 0.17012195), (-0.985423, -0.0000019140998, 0.17012195), (-0.49272084, 0.8534006, 0.17009906), (-0.49272054, 0.8534007, 0.17009892), (-0.985423, -0.0000019140998, 0.17012195), (-0.49272054, 0.8534007, 0.17009892), (-0.98542297, 0.00001318461, 0.170122), (-0.49981284, 0.8656741, -0.02820433), (-0.99960333, -8.106844e-7, -0.028165555), (-0.9847281, 0.000011596757, 0.17409915), (-0.49981284, 0.8656741, -0.02820433), (-0.9847281, 0.000011596757, 0.17409915), (-0.4923753, 0.8527884, 0.17412174), (-0.4923753, 0.8527884, 0.17412174), (-0.9847281, 0.000011596757, 0.17409915), (-0.98542315, 0.000017454655, 0.17012139), (-0.4923753, 0.8527884, 0.17412174), (-0.98542315, 0.000017454655, 0.17012139), (-0.49271774, 0.8533932, 0.17014492), (-0.4927164, -0.8533985, 0.17012192), (-0.9854229, 0.000008820851, 0.17012283), (-0.985423, -0.0000019140998, 0.17012195), (-0.4927164, -0.8533985, 0.17012192), (-0.985423, -0.0000019140998, 0.17012195), (-0.4927102, -0.8534021, 0.17012213), (-0.4927102, -0.8534021, 0.17012213), (-0.985423, -0.0000019140998, 0.17012195), (-0.98542297, 0.00001318461, 0.170122), (-0.4927102, -0.8534021, 0.17012213), (-0.98542297, 0.00001318461, 0.170122), (-0.4927227, -0.85339487, 0.17012225), (-0.99960333, -8.106844e-7, -0.028165555), (-0.499802, -0.86568165, -0.028165393), (-0.49237502, -0.85279334, 0.17409913), (-0.99960333, -8.106844e-7, -0.028165555), (-0.49237502, -0.85279334, 0.17409913), (-0.9847281, 0.000011596757, 0.17409915), (-0.9847281, 0.000011596757, 0.17409915), (-0.49237502, -0.85279334, 0.17409913), (-0.49272716, -0.8533924, 0.17012139), (-0.9847281, 0.000011596757, 0.17409915), (-0.49272716, -0.8533924, 0.17012139), (-0.98542315, 0.000017454655, 0.17012139), (0.49270654, -0.85340434, 0.17012167), (-0.4927164, -0.8533985, 0.17012192), (-0.4927102, -0.8534021, 0.17012213), (0.49270654, -0.85340434, 0.17012167), (-0.4927102, -0.8534021, 0.17012213), (0.49271134, -0.8534013, 0.17012303), (0.49271134, -0.8534013, 0.17012303), (-0.4927102, -0.8534021, 0.17012213), (-0.4927227, -0.85339487, 0.17012225), (0.49271134, -0.8534013, 0.17012303), (-0.4927227, -0.85339487, 0.17012225), (0.49270162, -0.8534071, 0.1701222), (-0.499802, -0.86568165, -0.028165393), (0.49980137, -0.865682, -0.028164871), (0.4923526, -0.85280603, 0.17409995), (-0.499802, -0.86568165, -0.028165393), (0.4923526, -0.85280603, 0.17409995), (-0.49237502, -0.85279334, 0.17409913), (-0.49237502, -0.85279334, 0.17409913), (0.4923526, -0.85280603, 0.17409995), (0.492696, -0.8534104, 0.17012168), (-0.49237502, -0.85279334, 0.17409913), (0.492696, -0.8534104, 0.17012168), (-0.49272716, -0.8533924, 0.17012139), (0.985423, -0.0000061704445, 0.17012198), (0.49270654, -0.85340434, 0.17012167), (0.49271134, -0.8534013, 0.17012303), (0.985423, -0.0000061704445, 0.17012198), (0.49271134, -0.8534013, 0.17012303), (0.98542297, 1.09143066e-7, 0.17012262), (0.98542297, 1.09143066e-7, 0.17012262), (0.49271134, -0.8534013, 0.17012303), (0.49270162, -0.8534071, 0.1701222), (0.98542297, 1.09143066e-7, 0.17012262), (0.49270162, -0.8534071, 0.1701222), (0.98542297, -0.000012060412, 0.17012207), (0.49980137, -0.865682, -0.028164871), (0.9996032, 1.7882737e-8, -0.028165419), (0.9847281, -0.000012283408, 0.17409924), (0.49980137, -0.865682, -0.028164871), (0.9847281, -0.000012283408, 0.17409924), (0.4923526, -0.85280603, 0.17409995), (0.4923526, -0.85280603, 0.17409995), (0.9847281, -0.000012283408, 0.17409924), (0.9854231, -0.000018412387, 0.17012183), (0.4923526, -0.85280603, 0.17409995), (0.9854231, -0.000018412387, 0.17012183), (0.492696, -0.8534104, 0.17012168)] (
                                    interpolation = "faceVarying"
                                )
                                point3f[] points = [(6.092071, -20.811857, 69.036255), (7.3594694, -18.616657, 71.525764), (9.02851, -21.50752, 71.525764), (6.4937115, -21.507519, 69.036255), (5.28879, -20.811857, 69.036255), (4.0213895, -18.616657, 71.525764), (4.8871493, -21.507519, 69.036255), (2.3523512, -21.50752, 71.525764), (4.0213895, -18.616657, 71.525764), (5.28879, -20.811857, 69.036255), (5.2887907, -22.20318, 69.036255), (4.021391, -24.398382, 71.525764), (6.0920715, -22.20318, 69.036255), (7.3594704, -24.398382, 71.525764), (5.2887907, -22.20318, 69.036255), (4.8871493, -21.507519, 69.036255), (6.4937115, -21.507519, 69.036255), (6.0920715, -22.20318, 69.036255), (5.4226656, -21.507519, 95.889755), (5.5565457, -21.739407, 95.889755), (5.824306, -21.739407, 95.889755), (5.958186, -21.507519, 95.889755), (5.824306, -21.27563, 95.889755), (5.5565457, -21.27563, 95.889755), (6.092071, -20.811857, 69.036255), (5.28879, -20.811857, 69.036255), (6.6306496, -19.87901, 86.5484), (7.5708704, -21.50752, 86.548386), (8.363722, -21.507519, 81.95584), (7.027076, -19.192377, 81.95584), (4.750207, -19.87901, 86.5484), (4.353781, -19.192377, 81.95584), (3.8099854, -21.507519, 86.54839), (4.750207, -19.87901, 86.5484), (4.353781, -19.192377, 81.95584), (3.017135, -21.507519, 81.95584), (4.750208, -23.136032, 86.5484), (4.353782, -23.822659, 81.95584), (6.63065, -23.136034, 86.5484), (7.0270762, -23.822659, 81.95584), (7.698632, -18.02921, 74.31521), (9.706836, -21.50752, 74.31521), (3.6822255, -18.02921, 74.31521), (1.6740232, -21.50752, 74.31521), (3.6822255, -18.02921, 74.31521), (3.6822271, -24.98583, 74.31521), (7.698633, -24.98583, 74.31521), (5.824306, -21.27563, 95.889755), (5.958186, -21.507519, 95.889755), (6.778018, -21.507519, 91.14092), (6.2342224, -20.565638, 91.14092), (7.423501, -18.505749, 77.36328), (9.156574, -21.50752, 77.36328), (5.5565457, -21.27563, 95.889755), (5.146631, -20.565638, 91.14092), (3.9573562, -18.505749, 77.36328), (5.4226656, -21.507519, 95.889755), (5.5565457, -21.27563, 95.889755), (5.146631, -20.565638, 91.14092), (4.6028357, -21.507523, 91.140945), (2.2242844, -21.50752, 77.36328), (3.9573562, -18.505749, 77.36328), (5.5565457, -21.739407, 95.889755), (5.1466312, -22.4494, 91.14093), (3.9573576, -24.509289, 77.36328), (5.824306, -21.739407, 95.889755), (6.234223, -22.4494, 91.14093), (7.423502, -24.509289, 77.36328)]
                                matrix4d primvars:skel:geomBindTransform = ( (0.9999999403953552, 0, 0, 0), (0, 0.9999999999999999, 0, 0), (0, 0, 0.9999999999999999, 0), (0, 0, -0.000003814697265625, 0.9999999999999998) )
                                int[] primvars:skel:jointIndices = [1, 0, 1, 0, 1, 0, 1, 0, 1, 0, 1, 0, 1, 0, 1, 0, 1, 0, 1, 0, 1, 0, 1, 0, 1, 0, 1, 0, 1, 0, 1, 0, 1, 0, 1, 0, 3, 4, 3, 4, 3, 4, 3, 4, 3, 4, 3, 4, 1, 0, 1, 0, 2, 3, 2, 3, 2, 0, 2, 0, 2, 3, 2, 0, 2, 3, 2, 3, 2, 0, 2, 0, 2, 3, 2, 0, 2, 3, 2, 0, 1, 0, 1, 0, 1, 0, 1, 0, 1, 0, 1, 0, 1, 0, 3, 4, 3, 4, 3, 2, 3, 2, 1, 2, 1, 2, 3, 4, 3, 2, 1, 2, 3, 4, 3, 4, 3, 2, 3, 2, 1, 2, 1, 2, 3, 4, 3, 2, 1, 2, 3, 4, 3, 2, 1, 2] (
                                    elementSize = 2
                                    interpolation = "vertex"
                                )
                                float[] primvars:skel:jointWeights = [1, 0, 1, 0, 1, 0, 1, 0, 1, 0, 1, 0, 1, 0, 1, 0, 1, 0, 1, 0, 1, 0, 1, 0, 1, 0, 1, 0, 1, 0, 1, 0, 1, 0, 1, 0, 0.5, 0.5, 0.5, 0.5, 0.5, 0.5, 0.5, 0.5, 0.5, 0.5, 0.5, 0.5, 1, 0, 1, 0, 0.9010241, 0.09897595, 0.8642127, 0.13578734, 1, 0, 1, 0, 0.94653237, 0.05346764, 1, 0, 0.9594728, 0.040527273, 0.94653237, 0.05346764, 1, 0, 1, 0, 0.93519396, 0.06480605, 1, 0, 0.8850211, 0.114978924, 1, 0, 1, 0, 1, 0, 1, 0, 1, 0, 1, 0, 1, 0, 1, 0, 0.5, 0.5, 0.5, 0.5, 0.9676374, 0.032362584, 0.96492827, 0.035071764, 0.5056237, 0.49437633, 0.50755745, 0.49244255, 0.5, 0.5, 0.96195114, 0.038048845, 0.5082697, 0.49173033, 0.5, 0.5, 0.5, 0.5, 0.96195114, 0.038048845, 0.96161056, 0.03838947, 0.5151065, 0.48489356, 0.5082697, 0.49173033, 0.5, 0.5, 0.96395, 0.036050048, 0.51885414, 0.4811459, 0.5, 0.5, 0.96697456, 0.033025462, 0.5136528, 0.48634726] (
                                    elementSize = 2
                                    interpolation = "vertex"
                                )
                                texCoord2f[] primvars:st = [(0.83333373, 0.9999999), (0.83333373, 0.94500005), (0.6666674, 0.94500005), (0.6666674, 0.9999999), (0.9999999, 0.9999999), (0.9999999, 0.94500005), (0.16666865, 0.9999999), (0.16666865, 0.94500005), (0.0000023955072, 0.94500005), (0.0000023955072, 0.9999999), (0.33333492, 0.9999999), (0.33333492, 0.94500005), (0.50000113, 0.9999999), (0.50000113, 0.94500005), (1.2166369, 0.92739713), (1.1300343, 0.97739714), (1.1300343, 0.77739716), (1.2166369, 0.8273971), (1.1300343, 0.97739714), (1.2166369, 0.92739713), (1.2166369, 0.8273971), (1.1300343, 0.77739716), (1.0434318, 0.8273971), (1.0434318, 0.92739713), (1.0434318, 0.8273971), (1.0434318, 0.92739713), (0.83333373, 0.3828826), (0.6666674, 0.3828826), (0.6666674, 0.57112014), (0.83333373, 0.57112014), (0.9999999, 0.3828826), (0.9999999, 0.57112014), (0.16666865, 0.3828826), (0.0000023955072, 0.3828826), (0.0000023955072, 0.57112014), (0.16666865, 0.57112014), (0.33333492, 0.3828826), (0.33333492, 0.57112014), (0.50000113, 0.3828826), (0.50000113, 0.57112014), (0.83333373, 0.89000005), (0.6666674, 0.89000005), (0.9999999, 0.89000005), (0.16666865, 0.89000005), (0.0000023955072, 0.89000005), (0.33333492, 0.89000005), (0.50000113, 0.89000005), (0.83333373, 0.000001847744), (0.6666674, 0.000001847744), (0.6666674, 0.19464493), (0.83333373, 0.19464493), (0.83333373, 0.7593577), (0.6666674, 0.7593577), (0.9999999, 0.000001847744), (0.9999999, 0.19464493), (0.9999999, 0.7593577), (0.16666865, 0.000001847744), (0.0000023955072, 0.000001847744), (0.0000023955072, 0.19464493), (0.16666865, 0.19464493), (0.16666865, 0.7593577), (0.0000023955072, 0.7593577), (0.33333492, 0.000001847744), (0.33333492, 0.19464493), (0.33333492, 0.7593577), (0.50000113, 0.000001847744), (0.50000113, 0.19464493), (0.50000113, 0.7593577)] (
                                    interpolation = "faceVarying"
                                )
                                int[] primvars:st:indices.timeSamples = {
                                    0: [0, 1, 2, 0, 2, 3, 4, 5, 1, 4, 1, 0, 6, 7, 8, 6, 8, 9, 10, 11, 7, 10, 7, 6, 12, 13, 11, 12, 11, 10, 3, 2, 13, 3, 13, 12, 14, 15, 16, 14, 16, 17, 18, 19, 20, 18, 20, 21, 22, 23, 18, 22, 18, 21, 24, 16, 15, 24, 15, 25, 26, 27, 28, 26, 28, 29, 30, 26, 29, 30, 29, 31, 32, 33, 34, 32, 34, 35, 36, 32, 35, 36, 35, 37, 38, 36, 37, 38, 37, 39, 27, 38, 39, 27, 39, 28, 40, 41, 2, 40, 2, 1, 42, 40, 1, 42, 1, 5, 43, 44, 8, 43, 8, 7, 45, 43, 7, 45, 7, 11, 46, 45, 11, 46, 11, 13, 41, 46, 13, 41, 13, 2, 47, 48, 49, 47, 49, 50, 50, 49, 27, 50, 27, 26, 41, 40, 51, 41, 51, 52, 52, 51, 29, 52, 29, 28, 53, 47, 50, 53, 50, 54, 54, 50, 26, 54, 26, 30, 40, 42, 55, 40, 55, 51, 51, 55, 31, 51, 31, 29, 56, 57, 58, 56, 58, 59, 59, 58, 33, 59, 33, 32, 44, 43, 60, 44, 60, 61, 61, 60, 35, 61, 35, 34, 62, 56, 59, 62, 59, 63, 63, 59, 32, 63, 32, 36, 43, 45, 64, 43, 64, 60, 60, 64, 37, 60, 37, 35, 65, 62, 63, 65, 63, 66, 66, 63, 36, 66, 36, 38, 45, 46, 67, 45, 67, 64, 64, 67, 39, 64, 39, 37, 48, 65, 66, 48, 66, 49, 49, 66, 38, 49, 38, 27, 46, 41, 52, 46, 52, 67, 67, 52, 28, 67, 28, 39],
                                }
                                rel skel:skeleton = </root/Sketchfab_model/_7bdce573fa4f4345b532d79e2adc2223_fbx/Object_2/RootNode/Object_4/Armature>
                                uniform token subdivisionScheme = "none"
                                custom string userProperties:blender:data_name = "candleflame001_candleflame_0"
                            }
                        }

                        def Xform "IK_Chain003"
                        {
                            custom string userProperties:blender:object_name = "IK Chain003"
                            float3 xformOp:rotateXYZ.timeSamples = {
                                0: (-90.00001, -0.0000024260316, 165),
                            }
                            float3 xformOp:scale.timeSamples = {
                                0: (0.9999998, 0.99999994, 1),
                            }
                            double3 xformOp:translate.timeSamples = {
                                0: (23.085384368896484, 18.616018295288086, 114.24295806884766),
                                1: (23.085384368896484, 17.282493591308594, 114.24295806884766),
                                2: (23.085384368896484, 17.406267166137695, 114.24295806884766),
                                3: (23.085384368896484, 19.71599578857422, 114.24295806884766),
                                4: (23.882644653320312, 20.17794418334961, 114.24295806884766),
                                5: (24.67990493774414, 20.320171356201172, 114.24295806884766),
                                6: (24.67990493774414, 21.031314849853516, 114.24295806884766),
                                7: (25.14952278137207, 21.315773010253906, 114.24295806884766),
                                8: (25.93221664428711, 21.315773010253906, 114.24295806884766),
                                9: (25.93221664428711, 23.652585983276367, 114.24295806884766),
                                10: (26.359886169433594, 25.054677963256836, 114.24295806884766),
                                11: (27.429058074951172, 25.054677963256836, 114.24295806884766),
                                12: (27.642892837524414, 23.069307327270508, 114.24295806884766),
                                13: (27.452089309692383, 21.098478317260742, 114.24295806884766),
                                14: (26.49808120727539, 21.171171188354492, 114.24295806884766),
                            }
                            uniform token[] xformOpOrder = ["xformOp:translate", "xformOp:rotateXYZ", "xformOp:scale"]
                        }

                        def Xform "candleflame002"
                        {
                            custom string userProperties:blender:object_name = "candleflame002"
                            float3 xformOp:rotateXYZ = (-90, -0, 100)
                            float3 xformOp:scale = (1, 1, 0.99999994)
                            double3 xformOp:translate = (5.765417098999023, 29.538633346557617, 67.71014404296875)
                            uniform token[] xformOpOrder = ["xformOp:translate", "xformOp:rotateXYZ", "xformOp:scale"]
                        }

                        def Xform "Object_10"
                        {
                            custom string userProperties:blender:object_name = "Object_10"
                            float3 xformOp:rotateXYZ = (-90.000015, -2.6181707e-25, -6.2120205e-18)
                            float3 xformOp:scale = (0.99999994, 1.0000001, 1.0000001)
                            double3 xformOp:translate = (5.6904296875, -21.50751495361328, 69.0362548828125)
                            uniform token[] xformOpOrder = ["xformOp:translate", "xformOp:rotateXYZ", "xformOp:scale"]
                        }

                        def Xform "Plane006"
                        {
                            custom string userProperties:blender:object_name = "Plane006"
                            float3 xformOp:rotateXYZ = (-39.192387, -6.9377246, 12.400027)
                            float3 xformOp:scale = (1, 1, 1)
                            double3 xformOp:translate = (33.12628173828125, -30.596288681030273, 25.430252075195312)
                            uniform token[] xformOpOrder = ["xformOp:translate", "xformOp:rotateXYZ", "xformOp:scale"]
                        }

                        def Xform "IK_Chain001"
                        {
                            custom string userProperties:blender:object_name = "IK Chain001"
                            float3 xformOp:rotateXYZ.timeSamples = {
                                0: (-90.000015, -0, 0),
                            }
                            float3 xformOp:scale.timeSamples = {
                                0: (0.99999994, 1.0000001, 1.0000001),
                            }
                            double3 xformOp:translate.timeSamples = {
                                0: (-0.3543360233306885, 1.7864646911621094, 85.29542541503906),
                                1: (-0.3543360233306885, 0.45293712615966797, 85.29542541503906),
                                2: (-0.3543360233306885, 0.5767123699188232, 85.29542541503906),
                                3: (-0.3543360233306885, 2.886442184448242, 85.29542541503906),
                                4: (0.442923903465271, 3.348388671875, 85.29542541503906),
                                5: (1.2401838302612305, 3.4906177520751953, 85.29542541503906),
                                6: (1.2401838302612305, 4.201761722564697, 85.29542541503906),
                                7: (1.7098013162612915, 4.48621940612793, 85.29542541503906),
                                8: (2.4924979209899902, 4.48621940612793, 85.29542541503906),
                                9: (2.4924979209899902, 6.823034286499023, 85.29542541503906),
                                10: (2.9201667308807373, 8.22512435913086, 85.29542541503906),
                                11: (3.9893386363983154, 8.22512435913086, 85.29542541503906),
                                12: (4.20317268371582, 6.239755630493164, 85.29542541503906),
                                13: (4.01237154006958, 4.268925189971924, 85.29542541503906),
                                14: (3.0583598613739014, 4.341618537902832, 85.29542541503906),
                            }
                            uniform token[] xformOpOrder = ["xformOp:translate", "xformOp:rotateXYZ", "xformOp:scale"]
                        }

                        def Xform "Object_6"
                        {
                            custom string userProperties:blender:object_name = "Object_6"
                            float3 xformOp:rotateXYZ = (-90.000015, -2.6181707e-25, -6.2120205e-18)
                            float3 xformOp:scale = (0.99999994, 1.0000001, 1.0000001)
                            double3 xformOp:translate = (5.6904296875, -21.50751495361328, 69.0362548828125)
                            uniform token[] xformOpOrder = ["xformOp:translate", "xformOp:rotateXYZ", "xformOp:scale"]
                        }

                        def Xform "candleflame003"
                        {
                            custom string userProperties:blender:object_name = "candleflame003"
                            float3 xformOp:rotateXYZ = (-90.00001, -0.0000012289433, 165)
                            float3 xformOp:scale = (0.9999999, 1, 1)
                            double3 xformOp:translate = (25.662185668945312, 17.264976501464844, 87.39547729492188)
                            uniform token[] xformOpOrder = ["xformOp:translate", "xformOp:rotateXYZ", "xformOp:scale"]
                        }

                        def Xform "IK_Chain002"
                        {
                            custom string userProperties:blender:object_name = "IK Chain002"
                            float3 xformOp:rotateXYZ.timeSamples = {
                                0: (-90, -0, 100),
                            }
                            float3 xformOp:scale.timeSamples = {
                                0: (1, 1, 0.99999994),
                            }
                            double3 xformOp:translate.timeSamples = {
                                0: (8.398269653320312, 27.226703643798828, 94.55762481689453),
                                1: (8.398269653320312, 25.893177032470703, 94.55762481689453),
                                2: (8.398269653320312, 26.016950607299805, 94.55762481689453),
                                3: (8.398269653320312, 28.326683044433594, 94.55762481689453),
                                4: (9.19552993774414, 28.78862762451172, 94.55762481689453),
                                5: (9.992790222167969, 28.93085479736328, 94.55762481689453),
                                6: (9.992790222167969, 29.641998291015625, 94.55762481689453),
                                7: (10.462406158447266, 29.92645835876465, 94.55762481689453),
                                8: (11.245102882385254, 29.92645835876465, 94.55762481689453),
                                9: (11.245102882385254, 32.26327133178711, 94.55762481689453),
                                10: (11.672772407531738, 33.66536331176758, 94.55762481689453),
                                11: (12.741944313049316, 33.66536331176758, 94.55762481689453),
                                12: (12.955778121948242, 31.679994583129883, 94.55762481689453),
                                13: (12.764975547790527, 29.709163665771484, 94.55762481689453),
                                14: (11.810965538024902, 29.781858444213867, 94.55762481689453),
                            }
                            uniform token[] xformOpOrder = ["xformOp:translate", "xformOp:rotateXYZ", "xformOp:scale"]
                        }

                        def Xform "candleflame001"
                        {
                            custom string userProperties:blender:object_name = "candleflame001"
                            float3 xformOp:rotateXYZ = (-90.000015, -0, 0)
                            float3 xformOp:scale = (0.99999994, 1.0000001, 1.0000001)
                            double3 xformOp:translate = (2.379662036895752, 3.977855920791626, 58.44794845581055)
                            uniform token[] xformOpOrder = ["xformOp:translate", "xformOp:rotateXYZ", "xformOp:scale"]
                        }

                        def Xform "Object_8"
                        {
                            custom string userProperties:blender:object_name = "Object_8"
                            float3 xformOp:rotateXYZ = (-90.000015, -2.6181707e-25, -6.2120205e-18)
                            float3 xformOp:scale = (0.99999994, 1.0000001, 1.0000001)
                            double3 xformOp:translate = (5.6904296875, -21.50751495361328, 69.0362548828125)
                            uniform token[] xformOpOrder = ["xformOp:translate", "xformOp:rotateXYZ", "xformOp:scale"]
                        }

                        def Xform "Object003"
                        {
                            custom string userProperties:blender:object_name = "Object003"
                            float3 xformOp:rotateXYZ = (-90.000015, -0, 0)
                            float3 xformOp:scale = (0.99999994, 1.0000001, 1.0000001)
                            double3 xformOp:translate = (0, 0, -0.000003814697265625)
                            uniform token[] xformOpOrder = ["xformOp:translate", "xformOp:rotateXYZ", "xformOp:scale"]
                        }
                    }
                }
            }
        }
    }

    def Scope "_materials"
    {
        def Material "candleflame" (
            prepend apiSchemas = ["ColorSpaceAPI"]
        )
        {
            uniform token colorSpace:name = "lin_rec709_scene"
            token outputs:surface.connect = </root/_materials/candleflame/Principled_BSDF.outputs:surface>
            custom string userProperties:blender:data_name = "candleflame"

            def Shader "Principled_BSDF"
            {
                uniform token info:id = "UsdPreviewSurface"
                float inputs:clearcoat = 0
                float inputs:clearcoatRoughness = 0.03
                color3f inputs:diffuseColor.connect = </root/_materials/candleflame/Image_Texture_001.outputs:rgb>
                color3f inputs:emissiveColor.connect = </root/_materials/candleflame/Image_Texture.outputs:rgb>
                float inputs:ior = 1.5
                float inputs:metallic = 0
                float inputs:opacity = 1
                float inputs:opacity.connect = </root/_materials/candleflame/Image_Texture_001.outputs:a>
                float inputs:roughness = 0
                float inputs:specular = 0.5
                token outputs:surface
            }

            def Shader "Image_Texture_001" (
                prepend apiSchemas = ["ColorSpaceAPI"]
            )
            {
                uniform token colorSpace:name = "srgb_rec709_display"
                uniform token info:id = "UsdUVTexture"
                asset inputs:file = @./textures/candleflame_baseColor.png@
                token inputs:sourceColorSpace = "sRGB"
                float2 inputs:st.connect = </root/_materials/candleflame/uvmap.outputs:result>
                token inputs:wrapS = "repeat"
                token inputs:wrapT = "repeat"
                float outputs:a
                float3 outputs:rgb
            }

            def Shader "uvmap"
            {
                uniform token info:id = "UsdPrimvarReader_float2"
                string inputs:varname = "st"
                float2 outputs:result
            }

            def Shader "Image_Texture" (
                prepend apiSchemas = ["ColorSpaceAPI"]
            )
            {
                uniform token colorSpace:name = "srgb_rec709_display"
                uniform token info:id = "UsdUVTexture"
                asset inputs:file = @./textures/candleflame_emissive.jpeg@
                token inputs:sourceColorSpace = "sRGB"
                float2 inputs:st.connect = </root/_materials/candleflame/uvmap.outputs:result>
                token inputs:wrapS = "repeat"
                token inputs:wrapT = "repeat"
                float3 outputs:rgb
            }
        }
    }
}

